<svg width="35" height="35" viewBox="0 0 35 35" fill="none" xmlns="http://www.w3.org/2000/svg">
<path d="M32.0833 24.675V29.05C32.085 29.4561 32.0018 29.8581 31.8391 30.2303C31.6764 30.6024 31.4377 30.9365 31.1385 31.211C30.8392 31.4856 30.4858 31.6946 30.1011 31.8248C29.7164 31.9549 29.3087 32.0032 28.9042 31.9666C24.4166 31.479 20.106 29.9456 16.3188 27.4896C12.7952 25.2505 9.80779 22.2631 7.56875 18.7396C5.10414 14.9351 3.57036 10.6035 3.09167 6.09581C3.05523 5.69253 3.10316 5.28609 3.2324 4.90235C3.36165 4.51861 3.56938 4.16598 3.84237 3.86693C4.11536 3.56787 4.44764 3.32893 4.81803 3.16532C5.18843 3.00172 5.58883 2.91703 5.99375 2.91665H10.3688C11.0765 2.90968 11.7626 3.1603 12.2992 3.6218C12.8359 4.08329 13.1864 4.72417 13.2854 5.42498C13.4701 6.82508 13.8125 8.19979 14.3063 9.5229C14.5025 10.0449 14.5449 10.6121 14.4286 11.1575C14.3123 11.7029 14.0421 12.2035 13.65 12.6L11.7979 14.4521C13.8739 18.1031 16.8969 21.126 20.5479 23.2021L22.4 21.35C22.7965 20.9579 23.2971 20.6877 23.8425 20.5714C24.3878 20.4551 24.9551 20.4975 25.4771 20.6937C26.8002 21.1874 28.1749 21.5299 29.575 21.7146C30.2834 21.8145 30.9304 22.1713 31.3929 22.7172C31.8553 23.263 32.1011 23.9598 32.0833 24.675Z" stroke="#F5F5F5" stroke-width="4" stroke-linecap="round" stroke-linejoin="round"/>
</svg>
